<?xml version="1.0" encoding="UTF-8"?>
<svg width="520px" height="110px" viewBox="0 0 520 110" version="1.1" xmlns="http://www.w3.org/2000/svg" xmlns:xlink="http://www.w3.org/1999/xlink">
    <title>8AFC26A1-E88A-4874-BB76-AA395EEC6BC0</title>
    <g id="Page-1" stroke="none" stroke-width="1" fill="none" fill-rule="evenodd">
        <g id="Lighter---Logo---Preview" transform="translate(-190.000000, -380.000000)">
            <g id="logo-Lighter" transform="translate(190.778442, 379.998758)">
                <path d="M259.366284,29.0590282 C263.090818,29.0590282 266.279434,29.7666899 268.936269,31.1799439 C271.588966,32.5952672 273.780234,34.3706288 275.505935,36.5060289 L275.505935,32.6801038 C275.505935,31.9910649 275.74596,31.3868625 276.228081,30.869566 C276.71227,30.3522695 277.330957,30.0936213 278.092417,30.0936213 L289.990237,30.0936213 C290.747559,30.0936213 291.384869,30.3522695 291.902165,30.869566 C292.419462,31.3868625 292.67811,31.9910649 292.67811,32.6801038 L292.67811,82.4440285 C292.67811,87.6852768 291.61041,92.1009198 289.472941,95.6868193 C287.333402,99.2706495 284.26273,101.997837 280.262994,103.860104 C276.263257,105.722372 271.40067,106.653505 265.677301,106.653505 C260.363631,106.653505 255.966611,105.962397 252.48624,104.584319 C249.001731,103.204172 246.241436,101.548823 244.209496,99.6162036 C242.173417,97.685653 240.706364,95.7716559 239.812475,93.8762815 C238.914449,91.9788379 238.432328,90.4766088 238.361976,89.3758018 C238.293693,88.6164105 238.533718,87.9935855 239.08826,87.5135344 C239.638664,87.0293448 240.292526,86.7893192 241.051918,86.7893192 L254.193318,86.7893192 C254.814074,86.7893192 255.345855,86.942439 255.794868,87.2548861 C256.243882,87.565264 256.605989,88.099114 256.88326,88.8585053 C257.226745,89.6158274 257.692312,90.4103948 258.277892,91.2380693 C258.865541,92.0657437 259.691146,92.7382292 260.762984,93.2555257 C261.830684,93.7728222 263.295668,94.0314704 265.160005,94.0314704 C267.229191,94.0314704 268.952823,93.7024699 270.33297,93.0486071 C271.711048,92.3906059 272.745641,91.3249751 273.436749,89.8413687 C274.125788,88.3577623 274.471342,86.375482 274.471342,83.8924588 L274.471342,76.9606855 C272.882207,78.6843175 270.850266,80.081018 268.365174,81.1507872 C265.88215,82.2205564 262.8839,82.7544064 259.366284,82.7544064 C255.848667,82.7544064 252.744888,82.2371099 250.054946,81.2025169 C247.365004,80.1679239 245.122007,78.6160343 243.330092,76.5468483 C241.536107,74.4776622 240.139407,71.9594628 239.137921,68.9943191 C238.138504,66.0291755 237.536371,62.6150185 237.327383,58.749779 C237.2591,56.9578638 237.2591,55.1659487 237.327383,53.3719644 C237.536371,49.6474295 238.119881,46.3036248 239.08826,43.336412 C240.052501,40.3712684 241.449201,37.8178928 243.276293,35.6804236 C245.103384,33.5429544 247.365004,31.9041591 250.054946,30.7661067 C252.744888,29.6280544 255.848667,29.0590282 259.366284,29.0590282 Z M442.488629,29.0577867 C448.557552,29.0577867 453.575328,30.2661914 457.541957,32.6788623 C461.508587,35.0936025 464.490284,38.369124 466.491187,42.5074961 C468.49209,46.6458682 469.491507,51.3718892 469.491507,56.6814206 L469.491507,59.1644439 C469.491507,59.9238351 469.232859,60.544591 468.715562,61.0287805 C468.198266,61.5109008 467.594063,61.7509264 466.905024,61.7509264 L433.798047,61.7509264 L433.798047,62.4772107 C433.864261,64.4781137 434.211885,66.3031358 434.83264,67.9584846 C435.453396,69.6138334 436.419706,70.9256974 437.727432,71.8920073 C439.037227,72.856248 440.626361,73.3404375 442.488629,73.3404375 C443.866707,73.3404375 445.023382,73.1148963 445.954516,72.6679521 C446.885649,72.2189387 447.661594,71.7016422 448.28235,71.1160625 C448.903106,70.5284137 449.383157,70.0276707 449.73078,69.6138334 C450.351536,68.9268637 450.85021,68.4944038 451.23094,68.3205922 C451.607532,68.1509189 452.211734,68.0619439 453.041478,68.0619439 L465.870431,68.0619439 C466.55947,68.0619439 467.126427,68.2543782 467.57751,68.6309701 C468.024454,69.0117003 468.214819,69.5476195 468.146536,70.2366585 C468.076184,71.4078178 467.488535,72.823141 466.387728,74.4784899 C465.282782,76.1317695 463.679163,77.7705649 461.57687,79.3928068 C459.470439,81.0129794 456.834296,82.3393277 453.662234,83.3739207 C450.488102,84.4085138 446.796674,84.9258103 442.592088,84.9258103 C434.45191,84.9258103 427.96915,82.7200579 423.141739,78.3044149 C418.314328,73.890841 415.796129,67.3377288 415.58921,58.6471473 L415.58921,55.0260717 C415.796129,49.5779049 417.021087,44.9056827 419.262015,41.0094054 C421.502944,37.113128 424.606723,34.1459152 428.573353,32.1098362 C432.539982,30.0778954 437.177028,29.0577867 442.488629,29.0577867 Z M165.428961,11.4705329 C166.115931,11.4705329 166.722202,11.7126277 167.239499,12.194748 C167.756795,12.6789376 168.015444,13.2996934 168.015444,14.0570155 L168.015444,68.2696902 L199.258084,68.2696902 C200.015406,68.2696902 200.654785,68.5283384 201.172081,69.045635 C201.689378,69.5629315 201.948026,70.20231 201.948026,70.9596321 L201.948026,81.3055623 C201.948026,82.0649536 201.689378,82.6857094 201.172081,83.1678298 C200.654785,83.6520193 200.015406,83.8920449 199.258084,83.8920449 L151.770264,83.8920449 C151.010873,83.8920449 150.390117,83.6520193 149.910066,83.1678298 C149.423807,82.6857094 149.183781,82.0649536 149.183781,81.3055623 L149.183781,14.0570155 C149.183781,13.2996934 149.423807,12.6789376 149.910066,12.194748 C150.390117,11.7126277 151.010873,11.4705329 151.770264,11.4705329 L165.428961,11.4705329 Z M226.672316,30.0932074 C227.361355,30.0932074 227.965557,30.3353022 228.482854,30.8174225 C229.00015,31.3016121 229.258799,31.9223679 229.258799,32.67969 L229.258799,81.3055623 C229.258799,82.0649536 229.00015,82.6857094 228.482854,83.1678298 C227.965557,83.6520193 227.361355,83.8920449 226.672316,83.8920449 L214.466188,83.8920449 C213.706796,83.8920449 213.083971,83.6520193 212.60392,83.1678298 C212.119731,82.6857094 211.879705,82.0649536 211.879705,81.3055623 L211.879705,32.67969 C211.879705,31.9223679 212.119731,31.3016121 212.60392,30.8174225 C213.083971,30.3353022 213.706796,30.0932074 214.466188,30.0932074 L226.672316,30.0932074 Z M318.646188,10.4359399 C319.405579,10.4359399 320.024266,10.6780346 320.508455,11.160155 C320.990576,11.6443445 321.232671,12.2651004 321.232671,13.0224225 L321.232671,36.093847 C323.094938,33.9563778 325.387596,32.2492993 328.112714,30.9726115 C330.835763,29.6979929 333.991272,29.0586144 337.57924,29.0586144 C341.576908,29.0586144 345.148323,29.9566411 348.287278,31.7485563 C351.424164,33.5425406 353.890634,36.1807528 355.684618,39.6631929 C357.476534,43.1477023 358.37456,47.4060872 358.37456,52.4404168 L358.37456,81.3055623 C358.37456,82.0649536 358.130396,82.6857094 357.650345,83.1678298 C357.168225,83.6520193 356.547469,83.8920449 355.788078,83.8920449 L342.441828,83.8920449 C341.75072,83.8920449 341.148586,83.6520193 340.63129,83.1678298 C340.113993,82.6857094 339.855345,82.0649536 339.855345,81.3055623 L339.855345,53.0611727 C339.855345,49.8187581 339.0794,47.3191814 337.527511,45.5603732 C335.975621,43.8015651 333.680894,42.922161 330.647467,42.922161 C327.81889,42.922161 325.540716,43.8015651 323.819153,45.5603732 C322.093452,47.3191814 321.232671,49.8187581 321.232671,53.0611727 L321.232671,81.3055623 C321.232671,82.0649536 320.990576,82.6857094 320.508455,83.1678298 C320.024266,83.6520193 319.405579,83.8920449 318.646188,83.8920449 L305.403397,83.8920449 C304.644006,83.8920449 304.02325,83.6520193 303.54113,83.1678298 C303.05694,82.6857094 302.816915,82.0649536 302.816915,81.3055623 L302.816915,13.0224225 C302.816915,12.2651004 303.05694,11.6443445 303.54113,11.160155 C304.02325,10.6780346 304.644006,10.4359399 305.403397,10.4359399 L318.646188,10.4359399 Z M390.136566,10.4359399 C390.893888,10.4359399 391.514644,10.6780346 392.000903,11.160155 C392.480954,11.6443445 392.723049,12.2651004 392.723049,13.0224225 L392.723049,30.0932074 L405.655462,30.0932074 C406.412784,30.0932074 407.03354,30.3353022 407.519798,30.8174225 C407.99985,31.3016121 408.241944,31.9223679 408.241944,32.67969 L408.241944,41.0598935 C408.241944,41.8192848 407.99985,42.4400406 407.519798,42.922161 C407.03354,43.4063505 406.412784,43.6463761 405.655462,43.6463761 L392.723049,43.6463761 L392.723049,62.062132 C392.723049,64.408589 393.172062,66.2687873 394.070089,67.6489344 C394.963977,69.0290815 396.48276,69.7181204 398.620229,69.7181204 L406.586595,69.7181204 C407.345987,69.7181204 407.964673,69.9622844 408.448863,70.4423355 C408.930983,70.9244559 409.173078,71.5452117 409.173078,72.304603 L409.173078,81.3055623 C409.173078,82.0649536 408.930983,82.6857094 408.448863,83.1678298 C407.964673,83.6520193 407.345987,83.8920449 406.586595,83.8920449 L396.96488,83.8920449 C392.549237,83.8920449 388.739866,83.1843833 385.534696,81.7711292 C382.325389,80.3578751 379.858919,78.1500536 378.135287,75.1497338 C376.409586,72.149414 375.548805,68.2696902 375.548805,63.5105623 L375.548805,43.6463761 L367.478979,43.6463761 C366.719588,43.6463761 366.082278,43.4063505 365.564982,42.922161 C365.047685,42.4400406 364.789037,41.8192848 364.789037,41.0598935 L364.789037,32.67969 C364.789037,31.9223679 365.047685,31.3016121 365.564982,30.8174225 C366.082278,30.3353022 366.719588,30.0932074 367.478979,30.0932074 L375.548805,30.0932074 L375.548805,13.0224225 C375.548805,12.2651004 375.807453,11.6443445 376.324749,11.160155 C376.842046,10.6780346 377.444179,10.4359399 378.135287,10.4359399 L390.136566,10.4359399 Z M493.699328,30.0932074 C494.456651,30.0932074 495.077406,30.3518557 495.559527,30.8691522 C496.043716,31.3864487 496.285811,31.990651 496.285811,32.67969 L496.285811,36.8180621 C498.146009,34.6805929 500.372453,33.0252441 502.958936,31.8520156 C505.545419,30.6787871 508.458833,30.0932074 511.701247,30.0932074 L516.251387,30.0932074 C516.940426,30.0932074 517.544629,30.3353022 518.061925,30.8174225 C518.579222,31.3016121 518.83787,31.9223679 518.83787,32.67969 L518.83787,43.3359982 C518.83787,44.0250372 518.579222,44.6292395 518.061925,45.146536 C517.544629,45.6638325 516.940426,45.9224808 516.251387,45.9224808 L506.217904,45.9224808 C503.389327,45.9224808 501.200128,46.6984255 499.648238,48.2503151 C498.096349,49.8022046 497.320404,51.9934727 497.320404,54.8199808 L497.320404,81.3055623 C497.320404,82.0649536 497.061756,82.6857094 496.544459,83.1678298 C496.027163,83.6520193 495.387784,83.8920449 494.630462,83.8920449 L481.801509,83.8920449 C481.042117,83.8920449 480.421362,83.6520193 479.939241,83.1678298 C479.455052,82.6857094 479.215026,82.0649536 479.215026,81.3055623 L479.215026,32.67969 C479.215026,31.990651 479.455052,31.3864487 479.939241,30.8691522 C480.421362,30.3518557 481.042117,30.0932074 481.801509,30.0932074 L493.699328,30.0932074 Z M264.953086,42.9225748 C262.674912,42.9225748 260.864374,43.4046952 259.521473,44.3710051 C258.176502,45.3373149 257.210192,46.6471097 256.624612,48.3024586 C256.036963,49.9557382 255.674856,51.7848987 255.53622,53.7858016 C255.467937,55.302515 255.467937,56.8544045 255.53622,58.4414703 C255.674856,60.4423732 256.036963,62.2694645 256.624612,63.9227441 C257.210192,65.5801621 258.176502,66.8899569 259.521473,67.8562668 C260.864374,68.8225767 262.674912,69.3046971 264.953086,69.3046971 C267.158838,69.3046971 268.952823,68.8225767 270.33297,67.8562668 C271.711048,66.8899569 272.729087,65.6484453 273.38295,64.1317319 C274.038882,62.6150185 274.400989,60.9927767 274.471342,59.2670755 C274.533417,58.5786009 274.566422,57.6336156 274.57191,56.430565 L274.572732,56.0619063 C274.572732,54.6838284 274.539625,53.6492353 274.471342,52.9581272 C274.400989,51.1641429 274.038882,49.5108632 273.38295,47.9920807 C272.729087,46.4753673 271.711048,45.2504091 270.33297,44.3192754 C268.952823,43.3881417 267.158838,42.9225748 264.953086,42.9225748 Z M442.488629,40.3369199 C440.626361,40.3369199 439.055849,40.7838641 437.781231,41.6798217 C436.504543,42.5778484 435.521679,43.8545362 434.83264,45.5098851 C434.141532,47.1631647 433.798047,49.0957845 433.798047,51.3015368 L433.798047,51.5084554 L451.28267,51.5084554 L451.28267,51.3015368 C451.28267,49.0957845 450.953669,47.1631647 450.299806,45.5098851 C449.641805,43.8545362 448.644457,42.5778484 447.297417,41.6798217 C445.954516,40.7838641 444.350896,40.3369199 442.488629,40.3369199 Z M226.672316,7.84945731 C227.431707,7.84945731 228.069017,8.10810557 228.586313,8.62540208 C229.10361,9.14269859 229.362258,9.78207709 229.362258,10.5393992 L229.362258,19.7472771 C229.362258,20.5066684 229.10361,21.1274242 228.586313,21.6095446 C228.069017,22.0937341 227.431707,22.3337597 226.672316,22.3337597 L214.360659,22.3337597 C213.601268,22.3337597 212.980512,22.0937341 212.500461,21.6095446 C212.016271,21.1274242 211.774177,20.5066684 211.774177,19.7472771 L211.774177,10.5393992 C211.774177,9.78207709 212.016271,9.14269859 212.500461,8.62540208 C212.980512,8.10810557 213.601268,7.84945731 214.360659,7.84945731 L226.672316,7.84945731 Z" id="Combined-Shape" fill="#1B202B"></path>
                <g id="logo-symbol" transform="translate(0.160889, 0.000000)">
                    <g id="Group-17" transform="translate(0.002069, 1.299449)"></g>
                    <g id="Group-20"></g>
                    <path d="M102.658528,73.3340231 L102.658528,76.8950923 C102.658528,95.1784203 87.834879,110.002069 69.5515509,110.002069 L69.5515509,110.002069 L29.3224356,110.002069 L29.3224356,109.915163 C13.1289855,109.908956 0.00206918606,96.7779011 0.00206918606,80.5803126 L0.00206918606,80.5803126 L0.000435661701,44.1628012 C0.0874209375,60.2881271 13.1890804,73.3340231 29.3348507,73.3340231 L29.3348507,73.3340231 L102.658528,73.3340231 Z" id="Combined-Shape" fill="#5240D7"></path>
                    <path d="M56.1978518,25.7083953 L63.5972612,12.1779876 C64.6463385,10.2619213 67.3983559,10.2619213 68.4474333,12.1779876 L75.8468426,25.7083953 C76.1013525,26.1718929 76.4820827,26.5526232 76.9455804,26.807133 L90.4739189,34.2065424 C92.3920543,35.2556197 92.3920543,38.0076372 90.4739189,39.0567145 L76.9455804,46.4561239 C76.4820827,46.7085645 76.1013525,47.091364 75.8468426,47.5548616 L68.4474333,61.0852693 C67.3983559,63.0013356 64.6463385,63.0013356 63.5972612,61.0852693 L56.1978518,47.5548616 C55.9454111,47.091364 55.5626117,46.7085645 55.099114,46.4561239 L41.5707756,39.0567145 C39.6526401,38.0076372 39.6526401,35.2556197 41.5707756,34.2065424 L55.099114,26.807133 C55.5626117,26.5526232 55.9454111,26.1718929 56.1978518,25.7083953" id="Fill-21" fill="#FECC12"></path>
                    <path d="M29.3348507,0 L29.3348507,73.3340231 C13.1351931,73.3340231 0,60.2008992 0,44.0012415 L0,29.3348507 C0,13.1331239 13.1351931,0 29.3348507,0" id="Fill-18" fill="#F14291"></path>
                </g>
            </g>
        </g>
    </g>
</svg>