<?xml version="1.0" encoding="UTF-8"?>
<svg width="110px" height="110px" viewBox="0 0 110 110" version="1.1" xmlns="http://www.w3.org/2000/svg" xmlns:xlink="http://www.w3.org/1999/xlink">
    <g id="Page-1" stroke="none" stroke-width="1" fill="none" fill-rule="evenodd">
        <g id="Lighter---Logo---Preview" transform="translate(-190.000000, -380.000000)">
            <g id="logo-Lighter" transform="translate(190.778442, 379.998758)">
                <g id="logo-symbol" transform="translate(0.160889, 0.000000)">
                    <g id="Group-17" transform="translate(0.002069, 1.299449)"></g>
                    <g id="Group-20"></g>
                    <path d="M102.658528,73.3340231 L102.658528,76.8950923 C102.658528,95.1784203 87.834879,110.002069 69.5515509,110.002069 L69.5515509,110.002069 L29.3224356,110.002069 L29.3224356,109.915163 C13.1289855,109.908956 0.00206918606,96.7779011 0.00206918606,80.5803126 L0.00206918606,80.5803126 L0.000435661701,44.1628012 C0.0874209375,60.2881271 13.1890804,73.3340231 29.3348507,73.3340231 L29.3348507,73.3340231 L102.658528,73.3340231 Z" id="Combined-Shape" fill="#5240D7"></path>
                    <path d="M56.1978518,25.7083953 L63.5972612,12.1779876 C64.6463385,10.2619213 67.3983559,10.2619213 68.4474333,12.1779876 L75.8468426,25.7083953 C76.1013525,26.1718929 76.4820827,26.5526232 76.9455804,26.807133 L90.4739189,34.2065424 C92.3920543,35.2556197 92.3920543,38.0076372 90.4739189,39.0567145 L76.9455804,46.4561239 C76.4820827,46.7085645 76.1013525,47.091364 75.8468426,47.5548616 L68.4474333,61.0852693 C67.3983559,63.0013356 64.6463385,63.0013356 63.5972612,61.0852693 L56.1978518,47.5548616 C55.9454111,47.091364 55.5626117,46.7085645 55.099114,46.4561239 L41.5707756,39.0567145 C39.6526401,38.0076372 39.6526401,35.2556197 41.5707756,34.2065424 L55.099114,26.807133 C55.5626117,26.5526232 55.9454111,26.1718929 56.1978518,25.7083953" id="Fill-21" fill="#FECC12"></path>
                    <path d="M29.3348507,0 L29.3348507,73.3340231 C13.1351931,73.3340231 0,60.2008992 0,44.0012415 L0,29.3348507 C0,13.1331239 13.1351931,0 29.3348507,0" id="Fill-18" fill="#F14291"></path>
                </g>
            </g>
        </g>
    </g>
</svg>
